G04*
G04 #@! TF.GenerationSoftware,Altium Limited,Altium Designer,19.0.15 (446)*
G04*
G04 Layer_Color=65535*
%FSAX44Y44*%
%MOMM*%
G71*
G01*
G75*
%ADD10C,0.2500*%
%ADD11C,0.2000*%
%ADD12C,0.6000*%
%ADD13C,0.1000*%
%ADD14C,0.2032*%
D10*
X00451230Y00463260D02*
G03*
X00451230Y00463260I-00001250J00000000D01*
G01*
X00342210Y00377210D02*
G03*
X00342210Y00377210I-00001250J00000000D01*
G01*
X00510550Y00390000D02*
G03*
X00510550Y00390000I-00001250J00000000D01*
G01*
D11*
X00455080Y00450560D02*
G03*
X00455080Y00443227I00000000J-00003667D01*
G01*
X00333940Y00370840D02*
G03*
X00326320Y00370840I-00003810J00000000D01*
G01*
X00455080Y00450560D02*
Y00468340D01*
Y00425160D02*
Y00442940D01*
X00406820Y00425160D02*
Y00468340D01*
X00455080D01*
X00406820Y00425160D02*
X00455080D01*
X00272500Y00406250D02*
X00279500D01*
X00272500Y00391750D02*
X00279500D01*
X00278750Y00362580D02*
Y00369580D01*
X00293250Y00362580D02*
Y00369580D01*
X00312250Y00326500D02*
Y00333500D01*
X00297750Y00326500D02*
Y00333500D01*
X00331250Y00326500D02*
Y00333500D01*
X00316750Y00326500D02*
Y00333500D01*
X00387250Y00382500D02*
Y00389500D01*
X00372750Y00382500D02*
Y00389500D01*
X00400500Y00368750D02*
X00407500D01*
X00400500Y00383250D02*
X00407500D01*
X00596250Y00354500D02*
Y00361500D01*
X00581750Y00354500D02*
Y00361500D01*
X00601750Y00354500D02*
Y00361500D01*
X00616250Y00354500D02*
Y00361500D01*
X00434500Y00401250D02*
X00441500D01*
X00434500Y00386750D02*
X00441500D01*
X00434500Y00368750D02*
X00441500D01*
X00434500Y00383250D02*
X00441500D01*
X00369750Y00421500D02*
Y00428500D01*
X00384250Y00421500D02*
Y00428500D01*
X00401250Y00421500D02*
Y00428500D01*
X00386750Y00421500D02*
Y00428500D01*
X00401250Y00465000D02*
Y00472000D01*
X00386750Y00465000D02*
Y00472000D01*
X00369750Y00465000D02*
Y00472000D01*
X00384250Y00465000D02*
Y00472000D01*
X00471500Y00471250D02*
X00478500D01*
X00471500Y00485750D02*
X00478500D01*
X00467750Y00349500D02*
Y00356500D01*
X00482250Y00349500D02*
Y00356500D01*
X00504250Y00349500D02*
Y00356500D01*
X00489750Y00349500D02*
Y00356500D01*
X00511750Y00349500D02*
Y00356500D01*
X00526250Y00349500D02*
Y00356500D01*
X00349500Y00350000D02*
Y00366000D01*
X00310500Y00350000D02*
X00349500D01*
X00310500D02*
Y00366000D01*
X00349500D01*
X00462000Y00427000D02*
X00478000D01*
X00462000D02*
Y00466000D01*
X00478000D01*
Y00427000D02*
Y00466000D01*
X00369250Y00326500D02*
Y00333500D01*
X00354750Y00326500D02*
Y00333500D01*
X00350250Y00326500D02*
Y00333500D01*
X00335750Y00326500D02*
Y00333500D01*
X00366250Y00465500D02*
Y00472500D01*
X00351750Y00465500D02*
Y00472500D01*
X00313620Y00401320D02*
X00346640D01*
X00333940Y00370840D02*
X00346640D01*
Y00401320D01*
X00313620Y00370840D02*
Y00401320D01*
Y00370840D02*
X00326320D01*
X00694500Y00404750D02*
Y00467750D01*
X00495500Y00404750D02*
Y00467750D01*
X00694500D01*
X00495500Y00404750D02*
X00694500D01*
X00642750Y00348000D02*
Y00350500D01*
X00635500Y00348000D02*
X00642750D01*
Y00365500D02*
Y00368000D01*
X00635500D02*
X00642750D01*
X00698100Y00259300D02*
Y00310100D01*
X00317100Y00259300D02*
Y00310100D01*
Y00259300D02*
X00698100D01*
X00317100Y00310100D02*
X00698100D01*
X00408000Y00320000D02*
X00398003D01*
Y00324998D01*
X00399669Y00326665D01*
X00403002D01*
X00404668Y00324998D01*
Y00320000D01*
Y00323332D02*
X00408000Y00326665D01*
Y00329997D02*
Y00333329D01*
Y00331663D01*
X00398003D01*
X00399669Y00329997D01*
X00408000Y00344992D02*
Y00338327D01*
X00401335Y00344992D01*
X00399669D01*
X00398003Y00343326D01*
Y00339994D01*
X00399669Y00338327D01*
X00421000Y00320000D02*
X00411003D01*
Y00324998D01*
X00412669Y00326665D01*
X00416002D01*
X00417668Y00324998D01*
Y00320000D01*
Y00323332D02*
X00421000Y00326665D01*
Y00329997D02*
Y00333329D01*
Y00331663D01*
X00411003D01*
X00412669Y00329997D01*
X00421000Y00338327D02*
Y00341660D01*
Y00339994D01*
X00411003D01*
X00412669Y00338327D01*
X00313620Y00415127D02*
Y00406796D01*
X00315286Y00405130D01*
X00318618D01*
X00320285Y00406796D01*
Y00415127D01*
X00323617Y00413461D02*
X00325283Y00415127D01*
X00328615D01*
X00330281Y00413461D01*
Y00411795D01*
X00328615Y00410128D01*
X00326949D01*
X00328615D01*
X00330281Y00408462D01*
Y00406796D01*
X00328615Y00405130D01*
X00325283D01*
X00323617Y00406796D01*
X00311160Y00325027D02*
X00317824Y00315030D01*
Y00325027D02*
X00311160Y00315030D01*
X00327821Y00325027D02*
X00324489Y00323361D01*
X00321157Y00320028D01*
Y00316696D01*
X00322823Y00315030D01*
X00326155D01*
X00327821Y00316696D01*
Y00318362D01*
X00326155Y00320028D01*
X00321157D01*
X00482003Y00428000D02*
X00492000Y00434664D01*
X00482003D02*
X00492000Y00428000D01*
Y00437997D02*
Y00441329D01*
Y00439663D01*
X00482003D01*
X00483669Y00437997D01*
X00354750Y00362997D02*
X00361414Y00353000D01*
Y00362997D02*
X00354750Y00353000D01*
X00371411D02*
X00364747D01*
X00371411Y00359664D01*
Y00361331D01*
X00369745Y00362997D01*
X00366413D01*
X00364747Y00361331D01*
X00624000Y00343997D02*
Y00337332D01*
X00627332Y00334000D01*
X00630664Y00337332D01*
Y00343997D01*
X00633997D02*
X00640661D01*
X00637329D01*
Y00334000D01*
X00643994D02*
X00647326D01*
X00645660D01*
Y00343997D01*
X00643994Y00342331D01*
X00407500Y00500997D02*
Y00492666D01*
X00409166Y00491000D01*
X00412498D01*
X00414165Y00492666D01*
Y00500997D01*
X00417497Y00491000D02*
X00420829D01*
X00419163D01*
Y00500997D01*
X00417497Y00499331D01*
X00594000Y00323000D02*
X00584003D01*
Y00327998D01*
X00585669Y00329664D01*
X00589002D01*
X00590668Y00327998D01*
Y00323000D01*
Y00326332D02*
X00594000Y00329664D01*
Y00339661D02*
Y00332997D01*
X00587336Y00339661D01*
X00585669D01*
X00584003Y00337995D01*
Y00334663D01*
X00585669Y00332997D01*
X00614000Y00323000D02*
X00604003D01*
Y00327998D01*
X00605669Y00329664D01*
X00609002D01*
X00610668Y00327998D01*
Y00323000D01*
Y00326332D02*
X00614000Y00329664D01*
X00604003Y00339661D02*
X00605669Y00336329D01*
X00609002Y00332997D01*
X00612334D01*
X00614000Y00334663D01*
Y00337995D01*
X00612334Y00339661D01*
X00610668D01*
X00609002Y00337995D01*
Y00332997D01*
X00466000Y00325000D02*
Y00334997D01*
X00470998D01*
X00472664Y00333331D01*
Y00329998D01*
X00470998Y00328332D01*
X00466000D01*
X00469332D02*
X00472664Y00325000D01*
X00480995D02*
Y00334997D01*
X00475997Y00329998D01*
X00482661D01*
X00456000Y00390000D02*
Y00399997D01*
X00460998D01*
X00462664Y00398331D01*
Y00394998D01*
X00460998Y00393332D01*
X00456000D01*
X00459332D02*
X00462664Y00390000D01*
X00465997D02*
X00469329D01*
X00467663D01*
Y00399997D01*
X00465997Y00398331D01*
X00461000Y00489000D02*
Y00498997D01*
X00465998D01*
X00467664Y00497331D01*
Y00493998D01*
X00465998Y00492332D01*
X00461000D01*
X00464332D02*
X00467664Y00489000D01*
X00470997Y00498997D02*
X00477661D01*
Y00497331D01*
X00470997Y00490666D01*
Y00489000D01*
X00513000Y00325000D02*
Y00334997D01*
X00517998D01*
X00519664Y00333331D01*
Y00329998D01*
X00517998Y00328332D01*
X00513000D01*
X00516332D02*
X00519664Y00325000D01*
X00522997Y00333331D02*
X00524663Y00334997D01*
X00527995D01*
X00529661Y00333331D01*
Y00331665D01*
X00527995Y00329998D01*
X00526329D01*
X00527995D01*
X00529661Y00328332D01*
Y00326666D01*
X00527995Y00325000D01*
X00524663D01*
X00522997Y00326666D01*
X00396000Y00355000D02*
Y00364997D01*
X00400998D01*
X00402664Y00363331D01*
Y00359998D01*
X00400998Y00358332D01*
X00396000D01*
X00399332D02*
X00402664Y00355000D01*
X00412661Y00364997D02*
X00405997D01*
Y00359998D01*
X00409329Y00361665D01*
X00410995D01*
X00412661Y00359998D01*
Y00356666D01*
X00410995Y00355000D01*
X00407663D01*
X00405997Y00356666D01*
X00481003Y00406000D02*
X00491000D01*
X00487668D01*
X00481003Y00412664D01*
X00486002Y00407666D01*
X00491000Y00412664D01*
Y00415997D02*
Y00419329D01*
Y00417663D01*
X00481003D01*
X00482669Y00415997D01*
X00493669Y00325664D02*
X00492003Y00323998D01*
Y00320666D01*
X00493669Y00319000D01*
X00500334D01*
X00502000Y00320666D01*
Y00323998D01*
X00500334Y00325664D01*
X00492003Y00335661D02*
X00493669Y00332329D01*
X00497002Y00328997D01*
X00500334D01*
X00502000Y00330663D01*
Y00333995D01*
X00500334Y00335661D01*
X00498668D01*
X00497002Y00333995D01*
Y00328997D01*
X00373669Y00326665D02*
X00372003Y00324998D01*
Y00321666D01*
X00373669Y00320000D01*
X00380334D01*
X00382000Y00321666D01*
Y00324998D01*
X00380334Y00326665D01*
X00382000Y00329997D02*
Y00333329D01*
Y00331663D01*
X00372003D01*
X00373669Y00329997D01*
X00382000Y00338327D02*
Y00341660D01*
Y00339994D01*
X00372003D01*
X00373669Y00338327D01*
X00267669Y00338665D02*
X00266003Y00336998D01*
Y00333666D01*
X00267669Y00332000D01*
X00274334D01*
X00276000Y00333666D01*
Y00336998D01*
X00274334Y00338665D01*
X00276000Y00341997D02*
Y00345329D01*
Y00343663D01*
X00266003D01*
X00267669Y00341997D01*
Y00350327D02*
X00266003Y00351994D01*
Y00355326D01*
X00267669Y00356992D01*
X00274334D01*
X00276000Y00355326D01*
Y00351994D01*
X00274334Y00350327D01*
X00267669D01*
X00376669Y00358665D02*
X00375003Y00356998D01*
Y00353666D01*
X00376669Y00352000D01*
X00383334D01*
X00385000Y00353666D01*
Y00356998D01*
X00383334Y00358665D01*
X00375003Y00361997D02*
Y00368661D01*
X00376669D01*
X00383334Y00361997D01*
X00385000D01*
X00262669Y00371665D02*
X00261003Y00369998D01*
Y00366666D01*
X00262669Y00365000D01*
X00269334D01*
X00271000Y00366666D01*
Y00369998D01*
X00269334Y00371665D01*
Y00374997D02*
X00271000Y00376663D01*
Y00379995D01*
X00269334Y00381661D01*
X00262669D01*
X00261003Y00379995D01*
Y00376663D01*
X00262669Y00374997D01*
X00264335D01*
X00266002Y00376663D01*
Y00381661D01*
X00462664Y00379171D02*
X00460998Y00380837D01*
X00457666D01*
X00456000Y00379171D01*
Y00372506D01*
X00457666Y00370840D01*
X00460998D01*
X00462664Y00372506D01*
X00465997Y00370840D02*
X00469329D01*
X00467663D01*
Y00380837D01*
X00465997Y00379171D01*
X00311669Y00467664D02*
X00310003Y00465998D01*
Y00462666D01*
X00311669Y00461000D01*
X00318334D01*
X00320000Y00462666D01*
Y00465998D01*
X00318334Y00467664D01*
X00311669Y00470997D02*
X00310003Y00472663D01*
Y00475995D01*
X00311669Y00477661D01*
X00313335D01*
X00315002Y00475995D01*
X00316668Y00477661D01*
X00318334D01*
X00320000Y00475995D01*
Y00472663D01*
X00318334Y00470997D01*
X00316668D01*
X00315002Y00472663D01*
X00313335Y00470997D01*
X00311669D01*
X00315002Y00472663D02*
Y00475995D01*
X00339669Y00467664D02*
X00338003Y00465998D01*
Y00462666D01*
X00339669Y00461000D01*
X00346334D01*
X00348000Y00462666D01*
Y00465998D01*
X00346334Y00467664D01*
X00338003Y00477661D02*
Y00470997D01*
X00343002D01*
X00341335Y00474329D01*
Y00475995D01*
X00343002Y00477661D01*
X00346334D01*
X00348000Y00475995D01*
Y00472663D01*
X00346334Y00470997D01*
X00325669Y00467664D02*
X00324003Y00465998D01*
Y00462666D01*
X00325669Y00461000D01*
X00332334D01*
X00334000Y00462666D01*
Y00465998D01*
X00332334Y00467664D01*
X00334000Y00475995D02*
X00324003D01*
X00329002Y00470997D01*
Y00477661D01*
X00343669Y00422664D02*
X00342003Y00420998D01*
Y00417666D01*
X00343669Y00416000D01*
X00350334D01*
X00352000Y00417666D01*
Y00420998D01*
X00350334Y00422664D01*
X00352000Y00432661D02*
Y00425997D01*
X00345336Y00432661D01*
X00343669D01*
X00342003Y00430995D01*
Y00427663D01*
X00343669Y00425997D01*
X00357669Y00422664D02*
X00356003Y00420998D01*
Y00417666D01*
X00357669Y00416000D01*
X00364334D01*
X00366000Y00417666D01*
Y00420998D01*
X00364334Y00422664D01*
X00357669Y00425997D02*
X00356003Y00427663D01*
Y00430995D01*
X00357669Y00432661D01*
X00359336D01*
X00361002Y00430995D01*
Y00429329D01*
Y00430995D01*
X00362668Y00432661D01*
X00364334D01*
X00366000Y00430995D01*
Y00427663D01*
X00364334Y00425997D01*
X00386669Y00326665D02*
X00385003Y00324998D01*
Y00321666D01*
X00386669Y00320000D01*
X00393334D01*
X00395000Y00321666D01*
Y00324998D01*
X00393334Y00326665D01*
X00395000Y00329997D02*
Y00333329D01*
Y00331663D01*
X00385003D01*
X00386669Y00329997D01*
X00395000Y00344992D02*
Y00338327D01*
X00388335Y00344992D01*
X00386669D01*
X00385003Y00343326D01*
Y00339994D01*
X00386669Y00338327D01*
D12*
X00508500Y00414750D02*
G03*
X00508500Y00414750I-00003000J00000000D01*
G01*
D13*
X00627500Y00372000D02*
G03*
X00627500Y00372000I-00000500J00000000D01*
G01*
D14*
X00312864Y00292320D02*
X00304400D01*
X00312864Y00300784D01*
Y00302900D01*
X00310748Y00305016D01*
X00306516D01*
X00304400Y00302900D01*
Y00266920D02*
X00308632D01*
X00306516D01*
Y00279616D01*
X00304400Y00277500D01*
M02*
