G04*
G04 #@! TF.GenerationSoftware,Altium Limited,Altium Designer,19.0.15 (446)*
G04*
G04 Layer_Physical_Order=2*
G04 Layer_Color=36540*
%FSAX44Y44*%
%MOMM*%
G71*
G01*
G75*
%ADD10C,0.2500*%
%ADD11C,0.2000*%
%ADD39C,0.5000*%
%ADD43C,1.6000*%
%ADD44C,1.0000*%
%ADD45C,0.5000*%
D10*
X00573000Y00331600D02*
X00598600D01*
X00564000Y00340600D02*
X00573000Y00331600D01*
X00564000Y00340600D02*
Y00398071D01*
X00598600Y00331600D02*
X00609200Y00321000D01*
X00575000D02*
X00584000D01*
X00558000Y00338000D02*
X00575000Y00321000D01*
X00558000Y00338000D02*
Y00397000D01*
X00274000Y00373000D02*
X00285000D01*
X00487000Y00468000D02*
X00558000Y00397000D01*
X00489071Y00473000D02*
X00564000Y00398071D01*
X00432929Y00473000D02*
X00489071D01*
X00435000Y00468000D02*
X00487000D01*
X00383000Y00423071D02*
X00432929Y00473000D01*
X00388000Y00421000D02*
X00435000Y00468000D01*
X00383000Y00416000D02*
Y00423071D01*
X00379250Y00412250D02*
X00383000Y00416000D01*
X00366250Y00412250D02*
X00379250D01*
X00364000Y00410000D02*
X00366250Y00412250D01*
X00364000Y00405000D02*
Y00410000D01*
X00388000Y00411000D02*
Y00421000D01*
X00375000Y00398000D02*
X00388000Y00411000D01*
X00368000Y00398000D02*
X00375000D01*
X00304000Y00463250D02*
Y00484250D01*
Y00442250D02*
Y00463250D01*
D11*
X00402000Y00309000D02*
X00423244D01*
X00366500Y00344500D02*
X00402000Y00309000D01*
X00317500Y00344500D02*
X00366500D01*
X00423244Y00309000D02*
X00431244Y00317000D01*
X00304000Y00358000D02*
X00317500Y00344500D01*
X00294640Y00399000D02*
X00330000D01*
Y00390000D02*
X00331000Y00389000D01*
X00368000D01*
D39*
X00373000Y00350000D02*
X00406000Y00317000D01*
X00350000Y00350000D02*
X00373000D01*
X00380600Y00297400D02*
Y00321400D01*
X00363000Y00339000D02*
X00380600Y00321400D01*
X00304000Y00339000D02*
X00363000D01*
X00285000Y00358000D02*
X00304000Y00339000D01*
X00330000Y00370000D02*
X00350000Y00350000D01*
X00330000Y00370000D02*
Y00390000D01*
X00431244Y00317000D02*
Y00325756D01*
X00396000Y00361000D02*
X00431244Y00325756D01*
X00396000Y00361000D02*
Y00404000D01*
X00368000Y00462000D02*
Y00494750D01*
X00348250Y00442250D02*
X00368000Y00462000D01*
X00304000Y00442250D02*
X00348250D01*
X00362750Y00436000D02*
X00383250D01*
X00330000Y00403250D02*
X00362750Y00436000D01*
X00330000Y00399000D02*
Y00403250D01*
X00451000Y00459000D02*
X00483750D01*
X00396000Y00404000D02*
X00451000Y00459000D01*
X00544200Y00356050D02*
Y00375800D01*
X00523000Y00397000D02*
X00544200Y00375800D01*
X00412000Y00397000D02*
X00523000D01*
X00285000Y00373000D02*
Y00423250D01*
Y00358000D02*
Y00373000D01*
X00394000Y00446750D02*
Y00491000D01*
X00383250Y00436000D02*
X00394000Y00446750D01*
X00330000Y00390000D02*
Y00399000D01*
X00285000Y00423250D02*
X00304000Y00442250D01*
D43*
X00380600Y00297400D02*
D03*
D44*
X00406000Y00317000D02*
D03*
X00431244D02*
D03*
X00584000Y00321000D02*
D03*
X00609000Y00324000D02*
D03*
X00412000Y00397000D02*
D03*
X00394000Y00491000D02*
D03*
X00483750Y00459000D02*
D03*
D45*
X00274000Y00373000D02*
D03*
X00364000Y00405000D02*
D03*
X00294640Y00399000D02*
D03*
X00368000Y00398000D02*
D03*
Y00389000D02*
D03*
X00304000Y00358000D02*
D03*
X00544200Y00356050D02*
D03*
X00368000Y00494750D02*
D03*
X00304000Y00442250D02*
D03*
Y00463250D02*
D03*
Y00484250D02*
D03*
M02*
