G04*
G04 #@! TF.GenerationSoftware,Altium Limited,Altium Designer,19.0.15 (446)*
G04*
G04 Layer_Color=32896*
%FSAX44Y44*%
%MOMM*%
G71*
G01*
G75*
%ADD10C,0.2500*%
%ADD11C,0.2000*%
D10*
X00355630Y00439240D02*
G03*
X00355630Y00439240I-00001250J00000000D01*
G01*
D11*
X00359480Y00459273D02*
G03*
X00359480Y00451940I00000000J-00003667D01*
G01*
X00311220Y00477340D02*
X00359480D01*
X00311220Y00434160D02*
X00359480D01*
X00311220D02*
Y00477340D01*
X00359480Y00459560D02*
Y00477340D01*
Y00434160D02*
Y00451940D01*
X00307000Y00368000D02*
X00310000D01*
X00307000Y00382000D02*
X00310000D01*
X00307000Y00395000D02*
X00310000D01*
X00307000Y00368000D02*
Y00399000D01*
X00299000Y00407000D02*
X00307000Y00399000D01*
X00299000Y00407000D02*
Y00485000D01*
X00260000Y00476250D02*
X00299000D01*
X00260000D02*
Y00492250D01*
X00299000D01*
Y00476250D02*
Y00492250D01*
X00260000Y00455250D02*
X00299000D01*
X00260000D02*
Y00471250D01*
X00299000D01*
Y00455250D02*
Y00471250D01*
X00260000Y00434250D02*
X00299000D01*
X00260000D02*
Y00450250D01*
X00299000D01*
Y00434250D02*
Y00450250D01*
X00279250Y00414750D02*
X00286250D01*
X00279250Y00429250D02*
X00286250D01*
X00430500Y00404250D02*
X00437500D01*
X00430500Y00389750D02*
X00437500D01*
X00386500D02*
X00393500D01*
X00386500Y00404250D02*
X00393500D01*
X00286250Y00401000D02*
Y00410997D01*
X00281252D01*
X00279585Y00409331D01*
Y00405998D01*
X00281252Y00404332D01*
X00286250D01*
X00282918D02*
X00279585Y00401000D01*
X00276253D02*
X00272921D01*
X00274587D01*
Y00410997D01*
X00276253Y00409331D01*
X00267923D02*
X00266256Y00410997D01*
X00262924D01*
X00261258Y00409331D01*
Y00402666D01*
X00262924Y00401000D01*
X00266256D01*
X00267923Y00402666D01*
Y00409331D01*
X00330000Y00372997D02*
X00323335Y00363000D01*
Y00372997D02*
X00330000Y00363000D01*
X00320003Y00371331D02*
X00318337Y00372997D01*
X00315005D01*
X00313339Y00371331D01*
Y00369664D01*
X00315005Y00367998D01*
X00316671D01*
X00315005D01*
X00313339Y00366332D01*
Y00364666D01*
X00315005Y00363000D01*
X00318337D01*
X00320003Y00364666D01*
X00330000Y00401997D02*
X00323335Y00392000D01*
Y00401997D02*
X00330000Y00392000D01*
X00313339Y00401997D02*
X00320003D01*
Y00396998D01*
X00316671Y00398665D01*
X00315005D01*
X00313339Y00396998D01*
Y00393666D01*
X00315005Y00392000D01*
X00318337D01*
X00320003Y00393666D01*
X00330000Y00386747D02*
X00323335Y00376750D01*
Y00386747D02*
X00330000Y00376750D01*
X00315005D02*
Y00386747D01*
X00320003Y00381748D01*
X00313339D01*
X00380000Y00476997D02*
Y00468666D01*
X00378334Y00467000D01*
X00375002D01*
X00373335Y00468666D01*
Y00476997D01*
X00363339Y00467000D02*
X00370003D01*
X00363339Y00473665D01*
Y00475331D01*
X00365005Y00476997D01*
X00368337D01*
X00370003Y00475331D01*
X00398000Y00376000D02*
Y00385997D01*
X00393002D01*
X00391335Y00384331D01*
Y00380998D01*
X00393002Y00379332D01*
X00398000D01*
X00394668D02*
X00391335Y00376000D01*
X00388003Y00384331D02*
X00386337Y00385997D01*
X00383005D01*
X00381339Y00384331D01*
Y00382664D01*
X00383005Y00380998D01*
X00381339Y00379332D01*
Y00377666D01*
X00383005Y00376000D01*
X00386337D01*
X00388003Y00377666D01*
Y00379332D01*
X00386337Y00380998D01*
X00388003Y00382664D01*
Y00384331D01*
X00386337Y00380998D02*
X00383005D01*
X00442000Y00376000D02*
Y00385997D01*
X00437002D01*
X00435336Y00384331D01*
Y00380998D01*
X00437002Y00379332D01*
X00442000D01*
X00438668D02*
X00435336Y00376000D01*
X00432003Y00377666D02*
X00430337Y00376000D01*
X00427005D01*
X00425339Y00377666D01*
Y00384331D01*
X00427005Y00385997D01*
X00430337D01*
X00432003Y00384331D01*
Y00382664D01*
X00430337Y00380998D01*
X00425339D01*
M02*
