G04*
G04 #@! TF.GenerationSoftware,Altium Limited,Altium Designer,19.0.15 (446)*
G04*
G04 Layer_Color=8388736*
%FSAX44Y44*%
%MOMM*%
G71*
G01*
G75*
%ADD15R,0.8032X1.9812*%
%ADD16O,0.8382X1.9812*%
%ADD17R,1.0922X1.4732*%
%ADD18R,1.4732X1.0922*%
%ADD19R,1.2032X1.4032*%
%ADD20R,1.4032X1.2032*%
%ADD21O,1.4732X0.4572*%
%ADD22R,1.4732X0.4572*%
%ADD23R,1.0032X2.3532*%
%ADD24R,1.1032X0.9032*%
%ADD25R,1.8032X1.8032*%
%ADD26C,1.8032*%
%ADD27C,1.2032*%
%ADD28C,0.7032*%
D15*
X00450000Y00478500D02*
D03*
D16*
X00411900Y00415000D02*
D03*
X00424600D02*
D03*
X00437300D02*
D03*
X00450000D02*
D03*
X00411900Y00478500D02*
D03*
X00424600D02*
D03*
X00437300D02*
D03*
D17*
X00266000Y00399000D02*
D03*
X00286000D02*
D03*
X00414000Y00376000D02*
D03*
X00394000D02*
D03*
X00428000Y00394000D02*
D03*
X00448000D02*
D03*
Y00376000D02*
D03*
X00428000D02*
D03*
X00485000Y00478500D02*
D03*
X00465000D02*
D03*
D18*
X00286000Y00356080D02*
D03*
Y00376080D02*
D03*
X00305000Y00340000D02*
D03*
Y00320000D02*
D03*
X00324000Y00340000D02*
D03*
Y00320000D02*
D03*
X00380000Y00396000D02*
D03*
Y00376000D02*
D03*
X00589000Y00368000D02*
D03*
Y00348000D02*
D03*
X00609000D02*
D03*
Y00368000D02*
D03*
X00377000Y00415000D02*
D03*
Y00435000D02*
D03*
X00394000D02*
D03*
Y00415000D02*
D03*
Y00478500D02*
D03*
Y00458500D02*
D03*
X00377000D02*
D03*
Y00478500D02*
D03*
X00475000Y00343000D02*
D03*
Y00363000D02*
D03*
X00497000Y00363000D02*
D03*
Y00343000D02*
D03*
X00519000Y00343000D02*
D03*
Y00363000D02*
D03*
X00362000Y00340000D02*
D03*
Y00320000D02*
D03*
X00343000Y00340000D02*
D03*
Y00320000D02*
D03*
X00359000Y00479000D02*
D03*
Y00459000D02*
D03*
D19*
X00317500Y00358000D02*
D03*
X00330000D02*
D03*
X00342500D02*
D03*
D20*
X00470000Y00459000D02*
D03*
Y00446500D02*
D03*
Y00434000D02*
D03*
D21*
X00354260Y00381000D02*
D03*
Y00386080D02*
D03*
Y00391160D02*
D03*
X00306000Y00386080D02*
D03*
Y00391160D02*
D03*
Y00396240D02*
D03*
X00354260D02*
D03*
X00306000Y00381000D02*
D03*
Y00375920D02*
D03*
D22*
X00354260D02*
D03*
D23*
X00671200Y00482500D02*
D03*
X00645800D02*
D03*
X00620400D02*
D03*
X00595000D02*
D03*
X00569600D02*
D03*
X00544200D02*
D03*
X00518800D02*
D03*
X00671200Y00390000D02*
D03*
X00645800D02*
D03*
X00620400D02*
D03*
X00595000D02*
D03*
X00569600D02*
D03*
X00544200D02*
D03*
X00518800D02*
D03*
D24*
X00646000Y00358000D02*
D03*
X00627000Y00351500D02*
D03*
Y00364500D02*
D03*
D25*
X00329800Y00272000D02*
D03*
D26*
Y00297400D02*
D03*
X00355200Y00272000D02*
D03*
Y00297400D02*
D03*
X00380600Y00272000D02*
D03*
Y00297400D02*
D03*
X00406000Y00272000D02*
D03*
Y00297400D02*
D03*
X00431400Y00272000D02*
D03*
Y00297400D02*
D03*
X00456800Y00272000D02*
D03*
Y00297400D02*
D03*
X00482200Y00272000D02*
D03*
Y00297400D02*
D03*
X00507600Y00272000D02*
D03*
Y00297400D02*
D03*
X00533000Y00272000D02*
D03*
Y00297400D02*
D03*
X00558400Y00272000D02*
D03*
Y00297400D02*
D03*
X00583800Y00272000D02*
D03*
Y00297400D02*
D03*
X00609200Y00272000D02*
D03*
Y00297400D02*
D03*
X00634600Y00272000D02*
D03*
Y00297400D02*
D03*
X00660000Y00272000D02*
D03*
Y00297400D02*
D03*
X00685400Y00272000D02*
D03*
Y00297400D02*
D03*
D27*
X00533000Y00316000D02*
D03*
X00406000Y00317000D02*
D03*
X00431244D02*
D03*
X00482000Y00315400D02*
D03*
X00508000Y00322000D02*
D03*
X00558000Y00320400D02*
D03*
X00584000Y00321000D02*
D03*
X00609000Y00324000D02*
D03*
X00412000Y00397000D02*
D03*
X00497000Y00374000D02*
D03*
X00394000Y00491000D02*
D03*
X00377000Y00446750D02*
D03*
X00470000Y00418000D02*
D03*
X00483750Y00459000D02*
D03*
X00445000Y00317000D02*
D03*
D28*
X00519000Y00499000D02*
D03*
X00274000Y00373000D02*
D03*
X00364000Y00405000D02*
D03*
X00371000D02*
D03*
X00294640Y00399000D02*
D03*
X00368000Y00382000D02*
D03*
Y00398000D02*
D03*
Y00389000D02*
D03*
X00304000Y00358000D02*
D03*
X00353000D02*
D03*
X00277000Y00387000D02*
D03*
X00266000Y00386000D02*
D03*
X00286000Y00345000D02*
D03*
X00264000Y00422000D02*
D03*
X00544200Y00356050D02*
D03*
X00609000Y00337000D02*
D03*
X00446000Y00431000D02*
D03*
X00460000Y00386000D02*
D03*
X00486000Y00333000D02*
D03*
X00508000D02*
D03*
X00528000Y00374000D02*
D03*
X00509000Y00373000D02*
D03*
X00454000Y00347000D02*
D03*
Y00361000D02*
D03*
X00439000D02*
D03*
X00309250Y00412250D02*
D03*
X00368000Y00494750D02*
D03*
X00304000Y00442250D02*
D03*
Y00463250D02*
D03*
Y00484250D02*
D03*
M02*
