M48
;Layer_Color=9474304
;FILE_FORMAT=4:4
METRIC
;TYPE=PLATED
T1F00S00C0.2500
T2F00S00C0.5000
T3F00S00C1.1000
%
T01
X00286000Y00345000
X00304000Y00358000
X00274000Y00373000
X00277000Y00387000
X00266000Y00386000
X00368000Y00389000
Y00382000
X00353000Y00358000
X00439000Y00361000
X00454000
Y00347000
X00460000Y00386000
X00509000Y00373000
X00528000Y00374000
X00544200Y00356050
X00508000Y00333000
X00486000
X00609000Y00337000
X00519000Y00499000
X00446000Y00431000
X00371000Y00405000
X00364000
X00368000Y00398000
X00309250Y00412250
X00294640Y00399000
X00304000Y00442250
Y00463250
Y00484250
X00368000Y00494750
X00264000Y00422000
T02
X00406000Y00317000
X00431244
X00445000
X00482000Y00315400
X00508000Y00322000
X00533000Y00316000
X00558000Y00320400
X00584000Y00321000
X00609000Y00324000
X00497000Y00374000
X00470000Y00418000
X00483750Y00459000
X00412000Y00397000
X00377000Y00446750
X00394000Y00491000
T03
X00329800Y00272000
Y00297400
X00355200
Y00272000
X00380600
Y00297400
X00406000
Y00272000
X00431400
Y00297400
X00456800
Y00272000
X00482200
Y00297400
X00507600
Y00272000
X00533000
Y00297400
X00558400
Y00272000
X00583800
Y00297400
X00609200
Y00272000
X00634600
Y00297400
X00660000
Y00272000
X00685400
Y00297400
M30
